<?xml version="1.0" standalone="no"?>
<!DOCTYPE svg PUBLIC "-//W3C//DTD SVG 20010904//EN"
 "http://www.w3.org/TR/2001/REC-SVG-20010904/DTD/svg10.dtd">
<svg version="1.0" xmlns="http://www.w3.org/2000/svg"
 width="192.000000pt" height="192.000000pt" viewBox="0 0 192.000000 192.000000"
 preserveAspectRatio="xMidYMid meet">
<metadata>
Created by potrace 1.11, written by Peter Selinger 2001-2013
</metadata>
<g transform="translate(0.000000,192.000000) scale(0.100000,-0.100000)"
fill="#000000" stroke="none">
<path d="M504 1840 c-29 -11 -84 -68 -95 -98 -12 -32 12 -72 43 -72 17 0 167
69 187 86 7 6 -29 54 -52 68 -32 20 -59 26 -83 16z"/>
<path d="M1034 1597 c-11 -7 -41 -29 -66 -49 l-45 -38 19 -107 c10 -60 17
-116 16 -125 -2 -14 -248 -241 -255 -235 0 1 -15 88 -33 192 -35 208 -37 215
-117 262 -43 25 -97 33 -113 17 -14 -14 -14 -26 1 -376 l13 -317 -52 -54 c-62
-67 -106 -134 -127 -197 -53 -160 -26 -429 50 -500 31 -30 76 -30 132 -2 174
89 255 310 257 700 l1 183 124 110 c68 60 128 106 132 102 4 -4 16 -91 28
-193 41 -361 50 -534 32 -597 -8 -27 -5 -39 19 -77 16 -25 48 -59 71 -76 75
-54 134 -33 150 55 9 48 0 298 -21 576 -5 67 -5 145 0 185 22 167 97 353 129
318 17 -18 31 -78 43 -181 11 -101 11 -106 -8 -119 -70 -50 -121 -95 -133
-117 -39 -74 62 -137 148 -92 47 24 99 93 129 172 27 70 34 78 113 140 89 71
179 158 179 174 0 5 -18 9 -40 9 -29 0 -43 -5 -52 -21 -13 -20 -151 -139 -162
-139 -3 0 -6 18 -6 40 0 73 -42 145 -104 177 -39 20 -135 19 -175 -2 -22 -11
-40 -33 -56 -68 -14 -29 -26 -45 -29 -36 -2 7 -14 53 -25 101 -35 146 -57 195
-93 207 -39 14 -48 13 -74 -2z m384 -649 c-11 -50 -30 -73 -53 -64 -28 10 -15
57 24 83 19 13 35 23 36 23 2 0 -1 -19 -7 -42z m-978 -586 c-5 -89 -15 -186
-21 -214 -11 -48 -13 -50 -25 -33 -32 44 -59 221 -51 335 5 85 23 135 70 196
l32 42 3 -82 c2 -44 -2 -154 -8 -244z"/>
</g>
</svg>
